<svg id="bd5d79f4-6c48-406c-8436-e735542ea5fe" data-name="VERTICAL" xmlns="http://www.w3.org/2000/svg" viewBox="0 0 741.75 774.44"><title>conectayt_logo</title><g id="5c29d5b5-9f0c-4e08-90a6-a0f9aa2d8a02" data-name="COLOR"><path d="M369.5,369.09a16.8,16.8,0,1,1-16.8-16.8A16.8,16.8,0,0,1,369.5,369.09Zm-16.8-155a16.8,16.8,0,1,0,16.8,16.8A16.8,16.8,0,0,0,352.7,214.11ZM472.37,283.2a16.8,16.8,0,1,0,16.8,16.8A16.8,16.8,0,0,0,472.37,283.2ZM208.89,263.26A36.74,36.74,0,1,0,245.63,300,36.74,36.74,0,0,0,208.89,263.26Z" fill="#ef4036"/><path d="M160.36,647.28l15.32,15.32a45.74,45.74,0,0,1-13.6,8.17,49.06,49.06,0,0,1-17.72,2.91,47.56,47.56,0,0,1-17.43-3.14,43.21,43.21,0,0,1-14.12-8.86,40.61,40.61,0,0,1-9.43-13.43,43.41,43.41,0,0,1,0-33.55,40,40,0,0,1,9.37-13.26,43.76,43.76,0,0,1,14-8.74,47.11,47.11,0,0,1,17.38-3.14,48.93,48.93,0,0,1,17.38,3,42.79,42.79,0,0,1,13.72,8.23L160,616.08a19.62,19.62,0,0,0-6.69-4.69,25,25,0,0,0-17.6-.23,18,18,0,0,0-6.57,4.34,20.24,20.24,0,0,0-4.29,6.92,25.41,25.41,0,0,0-1.54,9.09,25.74,25.74,0,0,0,1.54,9.2,20.2,20.2,0,0,0,4.29,6.92,18.63,18.63,0,0,0,6.57,4.4,22.27,22.27,0,0,0,8.4,1.54,24.9,24.9,0,0,0,9.2-1.6A19.65,19.65,0,0,0,160.36,647.28ZM238.23,629a27.74,27.74,0,0,1,4.17,15.09A28.51,28.51,0,0,1,227,669.86a37.41,37.41,0,0,1-33,0,29.13,29.13,0,0,1-11.43-10.57,29.75,29.75,0,0,1-.06-30.29,29,29,0,0,1,11.37-10.46,37.41,37.41,0,0,1,33,0A29.57,29.57,0,0,1,238.23,629Zm-18.46,15.2a10.81,10.81,0,0,0-1.2-5.2,8.58,8.58,0,0,0-3.26-3.43,9.59,9.59,0,0,0-4.92-1.2,9.33,9.33,0,0,0-4.86,1.26,8.85,8.85,0,0,0-3.31,3.49,10.81,10.81,0,0,0-1.2,5.2,10.56,10.56,0,0,0,1.2,5.09,8.45,8.45,0,0,0,3.31,3.43,9.67,9.67,0,0,0,4.86,1.2,9.91,9.91,0,0,0,5-1.2,8.1,8.1,0,0,0,3.26-3.43A11.26,11.26,0,0,0,219.77,644.2ZM299,617.62a21.55,21.55,0,0,0-10.8-2.69,26.84,26.84,0,0,0-12.06,2.63,21.57,21.57,0,0,0-2.69,1.58v-3.07h-22.4v56.24h22.4V640.77a7.55,7.55,0,0,1,.86-3.72,5.7,5.7,0,0,1,2.4-2.34,7.47,7.47,0,0,1,3.49-.8,6.3,6.3,0,0,1,6.63,6.86v31.55h22.4V635.62a20.57,20.57,0,0,0-2.74-10.69A20,20,0,0,0,299,617.62Zm75.56,10.69a28,28,0,0,1,3.83,14.63q0,1.71-.17,3.6a34.35,34.35,0,0,1-.74,4.4l-38.62.26c.12.32.24.64.38.94a10.18,10.18,0,0,0,4.17,4.74,13.42,13.42,0,0,0,6.86,1.6,17.52,17.52,0,0,0,7-1.31,15.77,15.77,0,0,0,5.54-4.17l11.2,11.09a26.72,26.72,0,0,1-10.17,7.2,36.1,36.1,0,0,1-13.6,2.4A38.14,38.14,0,0,1,333,670a27.79,27.79,0,0,1-15.77-25.78,28.53,28.53,0,0,1,4.06-15.2,28.89,28.89,0,0,1,11.14-10.46,33.13,33.13,0,0,1,16-3.83,32.51,32.51,0,0,1,15.55,3.6A26.75,26.75,0,0,1,374.59,628.31Zm-35.44,8.23c-.12.3-.24.61-.34.93l19.32-.16a14,14,0,0,0-.46-1.52,8.92,8.92,0,0,0-3.26-4.4,9.52,9.52,0,0,0-5.49-1.49,10.3,10.3,0,0,0-5.94,1.71A10.65,10.65,0,0,0,339.16,636.54ZM421,653.11a11.54,11.54,0,0,1-4.92.91,10,10,0,0,1-4.92-1.26,9.58,9.58,0,0,1-5-8.69,9.43,9.43,0,0,1,1.37-5.14,9.56,9.56,0,0,1,3.6-3.37,10.32,10.32,0,0,1,5-1.2,12.76,12.76,0,0,1,4.46.69,10.08,10.08,0,0,1,3.31,2.06l14.06-14.06a31.05,31.05,0,0,0-9.89-6.29,32.87,32.87,0,0,0-11.95-2.06,35.56,35.56,0,0,0-16.63,3.83,30,30,0,0,0-11.66,10.52,29.27,29.27,0,0,0-.06,30.41,29.18,29.18,0,0,0,11.55,10.46,35.38,35.38,0,0,0,16.46,3.77,32.32,32.32,0,0,0,12.46-2.23,34.68,34.68,0,0,0,10.29-6.8L424.41,650.6A11.08,11.08,0,0,1,421,653.11ZM477.16,593h-22.4v23.09h-12v18.29h12v38h22.4v-38h12V616.08h-12Zm57.11,23.09h21.83v56.24H534.27v-3.06a20.24,20.24,0,0,1-4.63,2.55,24.43,24.43,0,0,1-9.09,1.66,25.83,25.83,0,0,1-13.95-3.77,26.17,26.17,0,0,1-9.49-10.35,32.27,32.27,0,0,1-3.43-15.15,32.62,32.62,0,0,1,3.43-15.2,25.7,25.7,0,0,1,9.49-10.35,26.15,26.15,0,0,1,13.95-3.71,24.43,24.43,0,0,1,9.09,1.66,20.3,20.3,0,0,1,4.63,2.55Zm-1.89,35A9.59,9.59,0,0,0,535,644.2a10.32,10.32,0,0,0-1.14-5,8.68,8.68,0,0,0-3.26-3.37,9.49,9.49,0,0,0-13.09,3.43,9.62,9.62,0,0,0-1.26,4.92,10,10,0,0,0,1.2,4.92,8.82,8.82,0,0,0,3.37,3.43,9.39,9.39,0,0,0,4.8,1.26A9,9,0,0,0,532.39,651.11Zm65.91-60.32-5.74,10.66-5.74-10.66H575.73l12,20.6v13.72h9.64V611l11.81-20.2Zm43.46,0H611.53V599h10.27v26.12h9.64V599h10.32ZM312.81,283.2a16.8,16.8,0,1,0,16.8,16.8A16.8,16.8,0,0,0,312.81,283.2Zm136.46-52.3a16.8,16.8,0,1,1-16.8-16.8A16.8,16.8,0,0,1,449.28,230.91Zm0,138.18a16.8,16.8,0,1,1-16.8-16.8A16.8,16.8,0,0,1,449.28,369.09Zm-62.65-160h12a8.4,8.4,0,0,1,8.4,8.4v19.57a8.4,8.4,0,0,1-8.4,8.4h-12a8.4,8.4,0,0,1-8.4-8.4V217.5A8.4,8.4,0,0,1,386.63,209.1Zm-58.31,37.21,16.94,9.78a8.4,8.4,0,0,1,3.07,11.47l-6,10.39A8.4,8.4,0,0,1,330.86,281l-16.92-9.78a8.4,8.4,0,0,1-3.07-11.46l6-10.39A8.4,8.4,0,0,1,328.32,246.31Zm14,75.8,6,10.35a8.4,8.4,0,0,1-3.07,11.47l-16.92,9.78a8.4,8.4,0,0,1-11.47-3.07l-6-10.36A8.4,8.4,0,0,1,314,328.81L330.9,319A8.4,8.4,0,0,1,342.37,322.11Zm44.26,32.44h12a8.4,8.4,0,0,1,8.4,8.4v19.57a8.4,8.4,0,0,1-8.4,8.4h-12a8.4,8.4,0,0,1-8.4-8.4V362.95A8.4,8.4,0,0,1,386.63,354.55ZM454.29,319l16.94,9.78a8.4,8.4,0,0,1,3.07,11.48l-6,10.36a8.4,8.4,0,0,1-11.47,3.07l-16.92-9.78a8.4,8.4,0,0,1-3.07-11.47l6-10.35A8.4,8.4,0,0,1,454.29,319Zm14.05-69.64,6,10.39a8.4,8.4,0,0,1-3.07,11.46L454.33,281a8.4,8.4,0,0,1-11.48-3.07l-6-10.39a8.4,8.4,0,0,1,3.07-11.47l16.94-9.78A8.4,8.4,0,0,1,468.34,249.39Zm-2.26,182.08V495.8a4.2,4.2,0,0,1-4.2,4.2H365.09a4.2,4.2,0,0,1-4.2-4.2V431.47a4.2,4.2,0,0,1,4.2-4.2h96.78A4.2,4.2,0,0,1,466.07,431.47ZM268.64,339.84l27.46,47.61a4.2,4.2,0,0,1-1.54,5.73l-55.71,32.16a4.2,4.2,0,0,1-5.74-1.54L205.66,376.2a4.2,4.2,0,0,1,1.54-5.73L262.9,338.3A4.2,4.2,0,0,1,268.64,339.84Zm-63-116,27.46-47.61a4.2,4.2,0,0,1,5.74-1.54l55.71,32.16a4.2,4.2,0,0,1,1.54,5.73l-27.46,47.61a4.2,4.2,0,0,1-5.74,1.54l-55.71-32.16A4.2,4.2,0,0,1,205.66,223.81ZM365.09,100h96.78a4.2,4.2,0,0,1,4.2,4.2v64.33a4.2,4.2,0,0,1-4.2,4.2H365.09a4.2,4.2,0,0,1-4.2-4.2V104.21A4.2,4.2,0,0,1,365.09,100ZM337.48,459.09a36.74,36.74,0,1,1-36.74-36.74A36.74,36.74,0,0,1,337.48,459.09Zm0-318.18a36.74,36.74,0,1,1-36.74-36.74A36.74,36.74,0,0,1,337.48,140.91Z" fill="#00629b"/></g></svg>